<svg width="28" height="28" viewBox="0 0 28 28" fill="none" xmlns="http://www.w3.org/2000/svg">
<path d="M1.62503 1.62503C2.09385 1.15635 2.72962 0.893066 3.39253 0.893066C4.05544 0.893066 4.69121 1.15635 5.16003 1.62503L14 10.465L22.84 1.62503C23.3115 1.16964 23.943 0.917651 24.5985 0.923347C25.254 0.929043 25.8811 1.19197 26.3446 1.65549C26.8081 2.11901 27.071 2.74604 27.0767 3.40153C27.0824 4.05702 26.8304 4.68853 26.375 5.16003L17.535 14L26.375 22.84C26.8304 23.3115 27.0824 23.943 27.0767 24.5985C27.071 25.254 26.8081 25.8811 26.3446 26.3446C25.8811 26.8081 25.254 27.071 24.5985 27.0767C23.943 27.0824 23.3115 26.8304 22.84 26.375L14 17.535L5.16003 26.375C4.68853 26.8304 4.05702 27.0824 3.40153 27.0767C2.74604 27.071 2.11901 26.8081 1.65549 26.3446C1.19197 25.8811 0.929043 25.254 0.923347 24.5985C0.917651 23.943 1.16964 23.3115 1.62503 22.84L10.465 14L1.62503 5.16003C1.15635 4.69121 0.893066 4.05544 0.893066 3.39253C0.893066 2.72962 1.15635 2.09385 1.62503 1.62503V1.62503Z" fill="#030202"/>
</svg>
