<svg width="60" height="60" viewBox="0 0 60 60" fill="none" xmlns="http://www.w3.org/2000/svg">
<g clip-path="url(#clip0_72_45)">
<path d="M51.1228 51.124H42.2327V37.2013C42.2327 33.8812 42.1735 29.6074 37.609 29.6074C32.9787 29.6074 32.2702 33.2247 32.2702 36.9596V51.1231H23.3801V22.4922H31.9146V26.4049H32.0341C32.8882 24.9445 34.1224 23.7432 35.6053 22.9287C37.0881 22.1143 38.7641 21.7173 40.4547 21.7801C49.4652 21.7801 51.1266 27.707 51.1266 35.4176L51.1228 51.124ZM13.3491 18.5786C12.3287 18.5788 11.3312 18.2764 10.4827 17.7096C9.63416 17.1429 8.97282 16.3372 8.58218 15.3946C8.19153 14.4519 8.08915 13.4146 8.28804 12.4138C8.48692 11.4129 8.97812 10.4936 9.6995 9.7719C10.4209 9.05025 11.34 8.55871 12.3408 8.35946C13.3415 8.16021 14.3788 8.26219 15.3216 8.65251C16.2643 9.04284 17.0702 9.70396 17.6372 10.5523C18.2043 11.4006 18.507 12.398 18.5072 13.4184C18.5073 14.096 18.374 14.7669 18.1148 15.3929C17.8557 16.0189 17.4758 16.5877 16.9968 17.0668C16.5178 17.546 15.9491 17.9261 15.3233 18.1855C14.6974 18.4449 14.0266 18.5785 13.3491 18.5786ZM17.7941 51.124H8.89474V22.4922H17.7941V51.124ZM55.5549 0.0040879H4.42748C3.26703 -0.00900821 2.14879 0.439159 1.3186 1.25011C0.488405 2.06105 0.0141626 3.16843 0 4.32891V55.6702C0.0136779 56.8313 0.487642 57.9394 1.31781 58.7512C2.14797 59.563 3.26645 60.012 4.42748 59.9997H55.5549C56.7183 60.0142 57.8399 59.5665 58.6733 58.7547C59.5068 57.9429 59.9839 56.8336 60 55.6702V4.32521C59.9834 3.16243 59.5059 2.05379 58.6725 1.24286C57.839 0.431933 56.7177 -0.0149536 55.5549 0.000382054" fill="#2B2E2D"/>
</g>
<defs>
<clipPath id="clip0_72_45">
<rect width="60" height="60" fill="white"/>
</clipPath>
</defs>
</svg>
