<svg width="40" height="40" viewBox="0 0 40 40" fill="none" xmlns="http://www.w3.org/2000/svg">
<path d="M12.1358 22.8823C12.4483 22.9917 12.8155 23.0776 13.2374 23.1401C13.5968 23.2183 14.0421 23.2808 14.5733 23.3276C15.1046 23.3745 15.7218 23.3979 16.4249 23.3979C18.0343 23.3979 19.3468 23.2026 20.3624 22.812C21.378 22.4058 22.1749 21.8745 22.753 21.2183C23.3468 20.562 23.753 19.812 23.9718 18.9683C24.1905 18.1245 24.2999 17.2495 24.2999 16.3433C24.2999 15.3433 24.214 14.3979 24.0421 13.5073C23.8702 12.6011 23.4952 11.8042 22.9171 11.1167C22.3546 10.4292 21.5186 9.88232 20.4093 9.47607C19.3155 9.06982 17.839 8.8667 15.9796 8.8667C15.4015 8.8667 14.7765 8.88232 14.1046 8.91357C13.4483 8.94482 12.7921 9.00732 12.1358 9.10107V22.8823ZM12.1358 31.9526C12.1358 32.9526 12.1671 33.8354 12.2296 34.6011C12.3077 35.3667 12.3936 36.0386 12.4874 36.6167C12.5968 37.1792 12.6983 37.6558 12.7921 38.0464C12.8858 38.4214 12.9561 38.7261 13.003 38.9604C12.7686 39.0854 12.503 39.2026 12.2061 39.312C11.9249 39.4058 11.6202 39.4839 11.2921 39.5464C10.9796 39.6245 10.6671 39.6792 10.3546 39.7104C10.0421 39.7417 9.74521 39.7573 9.46396 39.7573C9.05771 39.7573 8.6749 39.7183 8.31552 39.6401C7.97177 39.562 7.6749 39.437 7.4249 39.2651C7.1749 39.0776 6.97959 38.8354 6.83896 38.5386C6.69834 38.2417 6.62802 37.8667 6.62802 37.4136V9.33545L2.10459 9.6167V7.5542C2.40146 7.44482 2.90927 7.29639 3.62802 7.10889C4.3624 6.90576 5.33115 6.71045 6.53427 6.52295C7.7374 6.31982 9.19052 6.14795 10.8936 6.00732C12.6124 5.85107 14.6124 5.77295 16.8936 5.77295C18.6749 5.77295 20.3468 5.9292 21.9093 6.2417C23.4874 6.53857 24.8702 7.08545 26.0577 7.88232C27.2452 8.66357 28.1827 9.7417 28.8702 11.1167C29.5577 12.4761 29.9015 14.2183 29.9015 16.3433C29.9015 17.9214 29.6358 19.3354 29.1046 20.5854C28.5733 21.8354 27.8077 22.8979 26.8077 23.7729C25.8077 24.6323 24.589 25.2886 23.1515 25.7417C21.714 26.1948 20.0968 26.4214 18.2999 26.4214C18.1124 26.4214 17.8077 26.4214 17.3858 26.4214C16.9796 26.4214 16.503 26.4136 15.9561 26.3979C15.4093 26.3823 14.8077 26.3589 14.1515 26.3276C13.4952 26.2964 12.8233 26.2495 12.1358 26.187V31.9526Z" fill="#11021F" fill-opacity="0.5"/>
<path d="M19.7547 20.5469C20.0672 20.6562 20.4344 20.7422 20.8563 20.8047C21.2157 20.8828 21.661 20.9453 22.1922 20.9922C22.7235 21.0391 23.3407 21.0625 24.0438 21.0625C25.6532 21.0625 26.9657 20.8672 27.9813 20.4766C28.9969 20.0703 29.7938 19.5391 30.3719 18.8828C30.9657 18.2266 31.3719 17.4766 31.5907 16.6328C31.8094 15.7891 31.9188 14.9141 31.9188 14.0078C31.9188 13.0078 31.8329 12.0625 31.661 11.1719C31.4891 10.2656 31.1141 9.46875 30.536 8.78125C29.9735 8.09375 29.1375 7.54688 28.0282 7.14062C26.9344 6.73438 25.4579 6.53125 23.5985 6.53125C23.0204 6.53125 22.3954 6.54688 21.7235 6.57812C21.0672 6.60938 20.411 6.67188 19.7547 6.76562V20.5469ZM19.7547 29.6172C19.7547 30.6172 19.786 31.5 19.8485 32.2656C19.9266 33.0312 20.0125 33.7031 20.1063 34.2812C20.2157 34.8438 20.3172 35.3203 20.411 35.7109C20.5047 36.0859 20.575 36.3906 20.6219 36.625C20.3875 36.75 20.1219 36.8672 19.825 36.9766C19.5438 37.0703 19.2391 37.1484 18.911 37.2109C18.5985 37.2891 18.286 37.3438 17.9735 37.375C17.661 37.4062 17.3641 37.4219 17.0829 37.4219C16.6766 37.4219 16.2938 37.3828 15.9344 37.3047C15.5907 37.2266 15.2938 37.1016 15.0438 36.9297C14.7938 36.7422 14.5985 36.5 14.4579 36.2031C14.3172 35.9062 14.2469 35.5312 14.2469 35.0781V7L9.72348 7.28125V5.21875C10.0204 5.10937 10.5282 4.96094 11.2469 4.77344C11.9813 4.57031 12.95 4.375 14.1532 4.1875C15.3563 3.98437 16.8094 3.8125 18.5125 3.67188C20.2313 3.51562 22.2313 3.4375 24.5125 3.4375C26.2938 3.4375 27.9657 3.59375 29.5282 3.90625C31.1063 4.20313 32.4891 4.75 33.6766 5.54688C34.8641 6.32812 35.8016 7.40625 36.4891 8.78125C37.1766 10.1406 37.5204 11.8828 37.5204 14.0078C37.5204 15.5859 37.2547 17 36.7235 18.25C36.1922 19.5 35.4266 20.5625 34.4266 21.4375C33.4266 22.2969 32.2079 22.9531 30.7704 23.4062C29.3329 23.8594 27.7157 24.0859 25.9188 24.0859C25.7313 24.0859 25.4266 24.0859 25.0047 24.0859C24.5985 24.0859 24.1219 24.0781 23.575 24.0625C23.0282 24.0469 22.4266 24.0234 21.7704 23.9922C21.1141 23.9609 20.4422 23.9141 19.7547 23.8516V29.6172Z" fill="#FAFFF2"/>
</svg>
