<?xml version="1.0" standalone="no"?>
<!DOCTYPE svg PUBLIC "-//W3C//DTD SVG 20010904//EN"
 "http://www.w3.org/TR/2001/REC-SVG-20010904/DTD/svg10.dtd">
<svg version="1.0" xmlns="http://www.w3.org/2000/svg"
 width="700.000000pt" height="700.000000pt" viewBox="0 0 700.000000 700.000000"
 preserveAspectRatio="xMidYMid meet">
<metadata>
Created by potrace 1.14, written by Peter Selinger 2001-2017
</metadata>
<g transform="translate(0.000000,700.000000) scale(0.100000,-0.100000)"
fill="#000000" stroke="none">
<path d="M3255 6989 c-921 -70 -1778 -537 -2335 -1274 -781 -1032 -875 -2412
-243 -3543 758 -1356 2399 -1982 3874 -1476 791 270 1454 847 1832 1591 179
354 280 683 333 1088 24 180 24 590 0 770 -52 402 -150 721 -326 1070 -105
209 -174 320 -306 495 -664 879 -1731 1362 -2829 1279z m875 -1640 c354 -39
582 -155 720 -366 89 -135 127 -270 137 -478 19 -431 -191 -745 -582 -868
-155 -48 -295 -61 -619 -54 -160 3 -302 9 -315 13 l-24 7 6 -364 c4 -200 11
-400 17 -444 9 -68 41 -232 56 -286 10 -35 -161 -80 -301 -80 -129 0 -190 28
-233 106 -16 27 -17 134 -19 1235 0 663 -2 1223 -2 1244 l-1 39 -122 -7 c-68
-4 -156 -9 -195 -13 l-73 -6 0 91 0 90 48 16 c334 108 1085 170 1502 125z"/>
<path d="M3505 5081 l-50 -6 -3 -589 c-1 -325 2 -594 6 -598 15 -15 163 -38
291 -44 231 -12 405 24 531 111 103 70 162 155 197 285 25 90 24 364 0 464
-37 148 -116 246 -251 311 -123 59 -174 67 -436 70 -129 2 -257 0 -285 -4z"/>
</g>
</svg>
